<svg xmlns="http://www.w3.org/2000/svg" viewBox="0 0 648.56 287.89"><defs><style>.cls-1{fill:#5e777d;opacity:0.5;}.cls-2{fill:#428393;}.cls-3{fill:#fff;}.cls-4{fill:#303030;}</style></defs><title>Ativo 3</title><g id="Camada_2" data-name="Camada 2"><g id="Camada_1-2" data-name="Camada 1"><path class="cls-1" d="M47.71,29.85,183.43,132a29.79,29.79,0,0,1,0,47.6L47.71,281.84C28.08,296.63,0,282.62,0,258V53.65C0,29.07,28.08,15.07,47.71,29.85Z"/><path class="cls-2" d="M60.2,6l135.71,102.2a29.79,29.79,0,0,1,0,47.6L60.2,258c-19.63,14.78-47.71.78-47.71-23.8V29.85C12.49,5.27,40.57-8.74,60.2,6Z"/><path class="cls-3" d="M68.13,178.91H30v-9.14h37.6a12.5,12.5,0,0,0,6-1.16,5.53,5.53,0,0,0,2.62-4,4.55,4.55,0,0,0,.13-1.21v-2.27H48.59a20.75,20.75,0,0,1-12.93-4.28,17.36,17.36,0,0,1-4-4.81,12.22,12.22,0,0,1-1.2-5.64V120.74q0-9.63,10.49-12.89a20.22,20.22,0,0,1,5.94-1h24.7q6.82,0,11,2.75a11.57,11.57,0,0,1,5.15,8A10.27,10.27,0,0,1,88.1,120v45.43a10.6,10.6,0,0,1-.32,2.48,13.13,13.13,0,0,1-2.21,4.72,12.69,12.69,0,0,1-3.89,3.48A19.52,19.52,0,0,1,76,178.18,37.72,37.72,0,0,1,68.13,178.91ZM41.85,145.64v.88a7.31,7.31,0,0,0,2.58,4.25,8.16,8.16,0,0,0,4.92,1.34H69.79a7.65,7.65,0,0,0,1.39-.1,7,7,0,0,0,3.69-1.73,6.07,6.07,0,0,0,1.23-3.67V122a5.77,5.77,0,0,0-1.26-4.18,6.89,6.89,0,0,0-5-2H50.17a4.69,4.69,0,0,0-1.58.2q-6.75.92-6.75,5.88Z"/><path class="cls-3" d="M114.24,161.16q-7.14,0-11.21-2.63a14.67,14.67,0,0,1-5.56-5.74,12.46,12.46,0,0,1-1.48-5V119.52q0-11.19,15.55-12.55l1.42-.07,1.68,0H136a27.61,27.61,0,0,1,2.85.19,27,27,0,0,1,8.62,2.09,12.6,12.6,0,0,1,5.32,4.21,10.57,10.57,0,0,1,1.79,6.15v28.31a11.09,11.09,0,0,1-1,4.67,10.91,10.91,0,0,1-3.13,3.89,22.49,22.49,0,0,1-5.5,3.16,22.81,22.81,0,0,1-9,1.6Zm-6.63-16.34q0,7.29,8.42,7.29h18.8q8.17,0,8.17-6.91V122.4a5.85,5.85,0,0,0-2.12-4.91,9.64,9.64,0,0,0-6-1.65H116q-8.42,0-8.42,6.57Z"/><path class="cls-4" d="M231.94,148.49q-9.48-4-9.48-11.87v-26.9a11.6,11.6,0,0,1,3.92-9.27q3.92-3.38,12.26-4.16,2-.19,3.1-.19h26.79v8.95H241.74a14.67,14.67,0,0,0-2.72.49q-4.93,1.31-4.93,5.4v23.59a4.71,4.71,0,0,0,.13,1.31,6.85,6.85,0,0,0,3.29,4.28,9.21,9.21,0,0,0,4.61,1.22h26.54v9H242A23.86,23.86,0,0,1,231.94,148.49Z"/><path class="cls-4" d="M291.57,150.39q-7.14,0-11.21-2.63A14.67,14.67,0,0,1,274.8,142a12.46,12.46,0,0,1-1.48-5V108.75q0-11.19,15.55-12.55l1.42-.07,1.68,0h21.39a27.61,27.61,0,0,1,2.85.19,27,27,0,0,1,8.62,2.09,12.6,12.6,0,0,1,5.32,4.21,10.57,10.57,0,0,1,1.79,6.15v28.31a11.09,11.09,0,0,1-1,4.67,10.91,10.91,0,0,1-3.13,3.89,22.49,22.49,0,0,1-5.5,3.16,22.81,22.81,0,0,1-9,1.6ZM284.94,134q0,7.29,8.42,7.29h18.8q8.17,0,8.17-6.91V111.62a5.85,5.85,0,0,0-2.12-4.91,9.64,9.64,0,0,0-6-1.65h-18.8q-8.42,0-8.42,6.57Z"/><path class="cls-4" d="M351.46,150.39H339.84V110.07a11.92,11.92,0,0,1,5.08-10.36q5.09-3.6,14.56-3.6h18.38q9.48,0,14.56,3.57t5.09,10.38v40.32H385.89V108.66a3.8,3.8,0,0,0-2.43-2.41,13.82,13.82,0,0,0-5.46-.9H359.48q-4.55,0-6.29,1.29t-1.74,4.5Z"/><path class="cls-4" d="M440.37,150.39h-37.3v-9h35.75a4.59,4.59,0,0,0,2.85-1q2-1.16,2-4.36v-4.17a4.55,4.55,0,0,0-1.55-3.85q-1.55-1.19-5.28-1.19H421a27,27,0,0,1-9.68-1.44,13.83,13.83,0,0,1-6-4.46,9.1,9.1,0,0,1-2-5.41v-7a11,11,0,0,1,4.11-9.11q4.11-3.26,11.43-3.26h36.52v8.95H419.87a9.57,9.57,0,0,0-2.59.68,3.39,3.39,0,0,0-2.27,3.4V113a4.47,4.47,0,0,0,1,2.48q1.64,2,5.31,2h17.31q1.14,0,3.29.2a21.41,21.41,0,0,1,7,2.48,13.54,13.54,0,0,1,4.64,4.28,9.9,9.9,0,0,1,1.64,5.5v8.56a9.73,9.73,0,0,1-2.45,6.18,12.11,12.11,0,0,1-3.64,3.31A19.46,19.46,0,0,1,440.37,150.39Z"/><path class="cls-4" d="M472.56,150.39H460.93V78h11.62V96.11h12.07v8.95H472.56Z"/><path class="cls-4" d="M494.79,150.39H483.16V110.46a27.35,27.35,0,0,1,.25-3.11q.88-5.45,3.95-7.83t10-3.21q2.15-.19,3-.19H507v9.14h-5.69a7.72,7.72,0,0,0-4,1,4.36,4.36,0,0,0-2,1.65,5.8,5.8,0,0,0-.51,2.72Z"/><path class="cls-4" d="M528,150.39a31.36,31.36,0,0,1-10.71-1.6,13.94,13.94,0,0,1-6.67-4.69,12.57,12.57,0,0,1-2.27-7.66V96.11H520v41.44l.13.29a4.34,4.34,0,0,0,2.5,2.38,13,13,0,0,0,5.4.92h18.51q4.42,0,6.16-1.31t1.74-4.57V96.11H566v40.32q0,6.81-5.09,10.38t-14.56,3.57Z"/><path class="cls-4" d="M583.41,148.49q-9.48-4-9.48-11.87v-26.9a11.6,11.6,0,0,1,3.92-9.27q3.92-3.38,12.26-4.16,2-.19,3.1-.19H620v8.95H593.2a14.67,14.67,0,0,0-2.72.49q-4.93,1.31-4.93,5.4v23.59a4.71,4.71,0,0,0,.13,1.31,6.85,6.85,0,0,0,3.29,4.28,9.21,9.21,0,0,0,4.61,1.22h26.54v9H593.45A23.86,23.86,0,0,1,583.41,148.49Z"/><path class="cls-4" d="M636.41,150.39H624.78V78h11.62V96.11h12.07v8.95H636.41Z"/><path class="cls-4" d="M242,183.75l2,.73a12.74,12.74,0,0,1-1.22,1.41,11.36,11.36,0,1,1,0-16.07,12.74,12.74,0,0,1,1.22,1.41l-2,.73q-.3-.37-.66-.75a9.4,9.4,0,1,0,0,13.28A9.47,9.47,0,0,0,242,183.75Z"/><path class="cls-4" d="M258.19,166.49a11.37,11.37,0,1,1-8,3.33A10.94,10.94,0,0,1,258.19,166.49Zm-6.64,4.73a9.36,9.36,0,1,0,6.64-2.76A9.09,9.09,0,0,0,251.55,171.22Z"/><path class="cls-4" d="M275.42,172.86v15.79h-1.87V168.32h1.87v1.31a8.09,8.09,0,0,1,5.9-2.53A7.81,7.81,0,0,1,289.5,175v13.61h-1.85V175.23a6,6,0,0,0-1.87-4.43,6.33,6.33,0,0,0-8.88,0A6.83,6.83,0,0,0,275.42,172.86Z"/><path class="cls-4" d="M296.71,168.32v-8.64h1.85v8.64h4.15v1.87h-4.15v18.46h-1.85V170.19h-4.15v-1.87Z"/><path class="cls-4" d="M313,170a6.21,6.21,0,0,0-3.09,1.9,8.89,8.89,0,0,0-2.74,6.3v10.49h-1.87V168.32h1.87V172a11.4,11.4,0,0,1,1.33-1.59,8.8,8.8,0,0,1,3.47-2.27Z"/><path class="cls-4" d="M337.16,188.65h-1.87V184.5a13.93,13.93,0,0,1-1.17,1.38,11.36,11.36,0,1,1,0-16.07,14,14,0,0,1,1.17,1.38v-2.88h1.87Zm-1.87-8.95V176a9.31,9.31,0,1,0,0,3.68Z"/><path class="cls-4" d="M344.14,168.32v-8.64H346v8.64h4.15v1.87H346v18.46h-1.85V170.19H340v-1.87Z"/><path class="cls-4" d="M375.08,188.65h-1.87V184.5a13.93,13.93,0,0,1-1.17,1.38,11.36,11.36,0,1,1,0-16.07,14,14,0,0,1,1.17,1.38v-2.88h1.87Zm-1.87-8.95V176a9.31,9.31,0,1,0,0,3.68Z"/><path class="cls-4" d="M386.88,188.88a11.38,11.38,0,1,1,10.91-19.06,12.74,12.74,0,0,1,1.22,1.41l-2,.73q-.3-.37-.66-.75a9.4,9.4,0,1,0,0,13.28,9.47,9.47,0,0,0,.66-.73l2,.73a12.74,12.74,0,0,1-1.22,1.41,10.93,10.93,0,0,1-8.06,3.35,11.85,11.85,0,0,1-1.31-.07l-.7.8a7.43,7.43,0,0,1,1.36-.14,2.94,2.94,0,0,1,1.87.54,2.14,2.14,0,0,1,.94,1.73v.21a3.08,3.08,0,0,1-1.43,2.11,4.84,4.84,0,0,1-2.44.66,5.94,5.94,0,0,1-1.52-.21l.4-1.19a3.5,3.5,0,0,0,1.29.26,3,3,0,0,0,1.41-.35,1.63,1.63,0,0,0,.7-1,1.32,1.32,0,0,0,0-.26,1,1,0,0,0-.33-.75,1.69,1.69,0,0,0-1.15-.42h-.09a3.56,3.56,0,0,0-1.1.14,7.08,7.08,0,0,0-1.33.77l-.82-.8Z"/><path class="cls-4" d="M424.43,188.65h-1.87V184.5a13.93,13.93,0,0,1-1.17,1.38,11.36,11.36,0,1,1,0-16.07,14,14,0,0,1,1.17,1.38v-2.88h1.87Zm-1.87-8.95V176a9.31,9.31,0,1,0,0,3.68Zm-9.13-19.32a4.41,4.41,0,0,0,1.92,1h.09a1.09,1.09,0,0,0,.61-.75,4.77,4.77,0,0,0,.09-1.15l1.55.3a5.54,5.54,0,0,1-.23,1.43A2.65,2.65,0,0,1,416,163a1.83,1.83,0,0,1-.58.09A4.69,4.69,0,0,1,413,162a4.37,4.37,0,0,0-1.92-1,.14.14,0,0,0-.09,0,1,1,0,0,0-.58.75,3.81,3.81,0,0,0-.12,1.15l-1.52-.33a4.73,4.73,0,0,1,.21-1.41,2.64,2.64,0,0,1,1.48-1.73,1.41,1.41,0,0,1,.58-.12A4.54,4.54,0,0,1,413.42,160.38Z"/><path class="cls-4" d="M439.56,166.49a11.37,11.37,0,1,1-8,3.33A10.94,10.94,0,0,1,439.56,166.49Zm-6.64,4.73a9.36,9.36,0,1,0,6.64-2.76A9.09,9.09,0,0,0,432.92,171.22Z"/><path class="cls-4" d="M469.52,161.66a1.74,1.74,0,0,1,.55,1.29,1.86,1.86,0,0,1-1.85,1.87,1.82,1.82,0,0,1-1.32-.54,1.79,1.79,0,0,1-.55-1.33,1.74,1.74,0,0,1,.55-1.29,1.82,1.82,0,0,1,1.32-.54A1.8,1.8,0,0,1,469.52,161.66Zm-.39,6.65v20.33h-1.85V168.32Z"/><path class="cls-4" d="M476.12,172.86v15.79h-1.87V168.32h1.87v1.31a8.09,8.09,0,0,1,5.9-2.53,7.81,7.81,0,0,1,8.17,7.94v13.61h-1.85V175.23a6,6,0,0,0-1.87-4.43,6.33,6.33,0,0,0-8.88,0A6.83,6.83,0,0,0,476.12,172.86Z"/><path class="cls-4" d="M497.41,168.32v-8.64h1.85v8.64h4.15v1.87h-4.15v18.46h-1.85V170.19h-4.15v-1.87Z"/><path class="cls-4" d="M507.41,176.82a7.44,7.44,0,0,0-.07,1.05,9.39,9.39,0,0,0,16,6.6q.47-.47.89-1l2,.7a10,10,0,0,1-1.48,1.69,11.36,11.36,0,1,1,0-16.07,9.61,9.61,0,0,1,2.93,7Zm.35-1.9H525.6a8.83,8.83,0,0,0-2.22-3.7,9.39,9.39,0,0,0-13.3,0A9.53,9.53,0,0,0,507.76,174.92Z"/><path class="cls-4" d="M533,155.53v33.12h-1.87V155.53Z"/><path class="cls-4" d="M540.61,161.66a1.74,1.74,0,0,1,.55,1.29,1.86,1.86,0,0,1-1.85,1.87,1.82,1.82,0,0,1-1.32-.54,1.79,1.79,0,0,1-.55-1.33,1.74,1.74,0,0,1,.55-1.29,1.82,1.82,0,0,1,1.32-.54A1.8,1.8,0,0,1,540.61,161.66Zm-.39,6.65v20.33h-1.85V168.32Z"/><path class="cls-4" d="M564.76,184.62q-.54.66-1.12,1.26a11.34,11.34,0,1,1,0-16.07,14,14,0,0,1,1.17,1.38v-2.88h1.87V184.1a10.62,10.62,0,0,1-3.26,7.82,11.34,11.34,0,0,1-16.09,0,12.62,12.62,0,0,1-1.22-1.41l2-.73a7.35,7.35,0,0,0,.68.73,9.4,9.4,0,0,0,16-5.9Zm0-8.69a9.17,9.17,0,0,0-2.55-4.71,9.36,9.36,0,1,0,2.55,8.62Z"/><path class="cls-4" d="M571.63,176.82a7.44,7.44,0,0,0-.07,1.05,9.39,9.39,0,0,0,16,6.6q.47-.47.89-1l2,.7a10,10,0,0,1-1.48,1.69,11.36,11.36,0,1,1,0-16.07,9.61,9.61,0,0,1,2.93,7Zm.35-1.9h17.85a8.83,8.83,0,0,0-2.22-3.7,9.39,9.39,0,0,0-13.3,0A9.53,9.53,0,0,0,572,174.92Z"/><path class="cls-4" d="M597,172.86v15.79h-1.87V168.32H597v1.31a8.09,8.09,0,0,1,5.9-2.53A7.81,7.81,0,0,1,611,175v13.61h-1.85V175.23a6,6,0,0,0-1.87-4.43,6.33,6.33,0,0,0-8.88,0A6.83,6.83,0,0,0,597,172.86Z"/><path class="cls-4" d="M618.26,168.32v-8.64h1.85v8.64h4.15v1.87h-4.15v18.46h-1.85V170.19h-4.15v-1.87Z"/><path class="cls-4" d="M628.26,176.82a7.44,7.44,0,0,0-.07,1.05,9.39,9.39,0,0,0,16,6.6q.47-.47.89-1l2,.7a10,10,0,0,1-1.48,1.69,11.36,11.36,0,1,1,0-16.07,9.61,9.61,0,0,1,2.93,7Zm.35-1.9h17.85a8.83,8.83,0,0,0-2.22-3.7,9.39,9.39,0,0,0-13.3,0A9.53,9.53,0,0,0,628.61,174.92Z"/></g></g></svg>