<?xml version="1.0" encoding="iso-8859-1"?>
<!-- Generator: Adobe Illustrator 19.0.0, SVG Export Plug-In . SVG Version: 6.00 Build 0)  -->
<svg version="1.1" id="Layer_1" xmlns="http://www.w3.org/2000/svg" xmlns:xlink="http://www.w3.org/1999/xlink" x="0px" y="0px"
	 viewBox="0 0 512 512" style="enable-background:new 0 0 512 512;" xml:space="preserve">
<g transform="translate(1)">
	<g>
		<path style="fill:#25B99A;" d="M41.24,401.067c-3.413,0-5.973-1.707-7.68-5.12c-1.707-4.267,0-9.387,4.267-11.093l15.36-6.827
			c4.267-1.707,9.387,0,11.093,4.267c1.707,4.267,0,9.387-4.267,11.093l-15.36,6.827C43.8,401.067,42.093,401.067,41.24,401.067z
			 M474.733,396.8c-0.853,0-2.56,0-3.413-0.853l-15.36-6.827c-4.267-1.707-5.973-6.827-4.267-11.093
			c1.707-4.267,6.827-5.973,11.093-4.267l15.36,6.827c4.267,1.707,5.973,6.827,4.267,11.093
			C481.56,395.093,478.147,396.8,474.733,396.8z M87.32,379.733c-3.413,0-5.973-1.707-7.68-5.12c-1.707-4.267,0-9.387,4.267-11.093
			l15.36-6.827c4.267-1.707,9.387,0,11.093,4.267s0,9.387-4.267,11.093l-15.36,6.827C89.88,379.733,89.027,379.733,87.32,379.733z
			 M428.653,375.467c-0.853,0-2.56,0-3.413-0.853l-15.36-7.68c-4.267-1.707-5.973-6.827-4.267-11.093s6.827-5.973,11.093-4.267
			l15.36,6.827c4.267,1.707,5.973,6.827,4.267,11.093C434.627,372.907,432.067,375.467,428.653,375.467z M134.253,358.4
			c-3.413,0-5.973-1.707-7.68-5.12c-1.707-4.267,0-9.387,4.267-11.093l15.36-6.827c4.267-1.707,9.387,0,11.093,4.267
			s0,9.387-4.267,11.093l-15.36,6.827C136.813,357.547,135.107,358.4,134.253,358.4z M381.72,353.28c-0.853,0-2.56,0-3.413-0.853
			l-15.36-6.827c-4.267-1.707-5.973-6.827-4.267-11.093c1.707-4.267,6.827-5.973,11.093-4.267l15.36,6.827
			c4.267,1.707,5.973,6.827,4.267,11.093C388.547,351.573,385.133,353.28,381.72,353.28z M180.333,337.067
			c-3.413,0-5.973-1.707-7.68-5.12c-1.707-4.267,0-9.387,4.267-11.093l15.36-6.827c4.267-1.707,9.387,0,11.093,4.267
			s0,9.387-4.267,11.093l-15.36,6.827C182.893,336.213,182.04,337.067,180.333,337.067z M335.64,331.947
			c-0.853,0-2.56,0-3.413-0.853l-15.36-6.827c-4.267-1.707-5.973-6.827-4.267-11.093c1.707-4.267,6.827-5.973,11.093-4.267
			l15.36,6.827c4.267,1.707,5.973,6.827,4.267,11.093C341.613,330.24,339.053,331.947,335.64,331.947z M227.267,314.88
			c-3.413,0-5.973-1.707-7.68-5.12c-1.707-4.267,0-9.387,4.267-11.093l15.36-6.827c4.267-1.707,9.387,0,11.093,4.267
			s0,9.387-4.267,11.093l-15.36,6.827C229.827,314.88,228.12,314.88,227.267,314.88z M289.56,310.613c-0.853,0-2.56,0-3.413-0.853
			l-15.36-6.827c-4.267-1.707-5.973-6.827-4.267-11.093c1.707-4.267,6.827-5.973,11.093-4.267l15.36,6.827
			c4.267,1.707,5.973,6.827,4.267,11.093C295.533,308.907,292.12,310.613,289.56,310.613z"/>
		<path style="fill:#25B99A;" d="M263.107,230.4c-5.12,0-8.533-3.413-8.533-8.533V204.8c0-5.12,3.413-8.533,8.533-8.533
			s8.533,3.413,8.533,8.533v17.067C271.64,226.987,268.227,230.4,263.107,230.4z M263.107,179.2c-5.12,0-8.533-3.413-8.533-8.533
			V153.6c0-5.12,3.413-8.533,8.533-8.533s8.533,3.413,8.533,8.533v17.067C271.64,175.787,268.227,179.2,263.107,179.2z M263.107,128
			c-5.12,0-8.533-3.413-8.533-8.533V102.4c0-5.12,3.413-8.533,8.533-8.533s8.533,3.413,8.533,8.533v17.067
			C271.64,124.587,268.227,128,263.107,128z M263.107,76.8c-5.12,0-8.533-3.413-8.533-8.533V51.2c0-5.12,3.413-8.533,8.533-8.533
			s8.533,3.413,8.533,8.533v17.067C271.64,73.387,268.227,76.8,263.107,76.8z M263.107,25.6c-5.12,0-8.533-3.413-8.533-8.533V8.533
			c0-5.12,3.413-8.533,8.533-8.533s8.533,3.413,8.533,8.533v8.533C271.64,22.187,268.227,25.6,263.107,25.6z"/>
	</g>
	<g>
		<path style="fill:#434C6D;" d="M254.573,512c-1.707,0-2.56,0-3.413-0.853L29.293,400.213c-3.413-1.707-5.12-4.267-5.12-7.68
			V119.467c0-2.56,1.707-5.973,4.267-6.827c2.56-1.707,5.12-1.707,8.533-0.853l221.867,102.4c3.413,1.707,5.12,4.267,5.12,7.68
			v281.6c0,2.56-1.707,5.973-4.267,7.68C257.987,511.147,256.28,512,254.573,512z M41.24,387.413l204.8,102.4V226.987L41.24,133.12
			V387.413z"/>
		<path style="fill:#434C6D;" d="M254.573,512c-1.707,0-3.413,0-4.267-0.853c-2.56-1.707-4.267-5.12-4.267-7.68v-281.6
			c0-3.413,1.707-5.973,5.12-7.68l221.867-102.4c2.56-0.853,5.973-0.853,8.533,0.853c2.56,1.707,4.267,4.267,4.267,6.827v273.067
			c0,3.413-1.707,5.973-5.12,7.68L258.84,511.147C257.133,512,256.28,512,254.573,512z M263.107,226.987V488.96l204.8-102.4V133.12
			L263.107,226.987z"/>
		<path style="fill:#434C6D;" d="M254.573,230.4c-0.853,0-2.56,0-3.413-0.853l-221.867-102.4c-3.413-1.707-5.12-4.267-5.12-7.68
			s1.707-5.973,5.12-7.68L251.16,0.853c2.56-0.853,5.12-0.853,7.68,0l221.867,110.933c2.56,1.707,5.12,4.267,5.12,7.68
			s-1.707,5.973-5.12,7.68l-221.867,102.4C257.133,230.4,255.427,230.4,254.573,230.4z M52.333,119.467l202.24,93.013l202.24-93.013
			L254.573,17.92L52.333,119.467z"/>
	</g>
	<path d="M254.573,512c-1.707,0-2.56,0-3.413-0.853L29.293,400.213c-3.413-1.707-5.12-4.267-5.12-7.68V119.467
		c0-2.56,1.707-5.973,4.267-6.827c2.56-1.707,5.12-1.707,8.533-0.853l221.867,102.4c3.413,1.707,5.12,4.267,5.12,7.68v281.6
		c0,2.56-1.707,5.973-4.267,7.68C257.987,511.147,256.28,512,254.573,512z M41.24,387.413l204.8,102.4V226.987L41.24,133.12V387.413
		z"/>
	<path d="M254.573,512c-1.707,0-3.413,0-4.267-0.853c-2.56-1.707-4.267-5.12-4.267-7.68v-281.6c0-3.413,1.707-5.973,5.12-7.68
		l221.867-102.4c2.56-0.853,5.973-0.853,8.533,0.853c2.56,1.707,4.267,4.267,4.267,6.827v273.067c0,3.413-1.707,5.973-5.12,7.68
		L258.84,511.147C257.133,512,256.28,512,254.573,512z M263.107,226.987V488.96l204.8-102.4V133.12L263.107,226.987z"/>
	<path d="M254.573,230.4c-0.853,0-2.56,0-3.413-0.853l-221.867-102.4c-3.413-1.707-5.12-4.267-5.12-7.68s1.707-5.973,5.12-7.68
		L251.16,0.853c2.56-0.853,5.12-0.853,7.68,0l221.867,110.933c2.56,1.707,5.12,4.267,5.12,7.68s-1.707,5.973-5.12,7.68
		l-221.867,102.4C257.133,230.4,255.427,230.4,254.573,230.4z M52.333,119.467l202.24,93.013l202.24-93.013L254.573,17.92
		L52.333,119.467z"/>
	<path d="M32.707,401.067c-3.413,0-5.973-1.707-7.68-5.12c-1.707-4.267,0-9.387,4.267-11.093l15.36-6.827
		c4.267-1.707,9.387,0,11.093,4.267c1.707,4.267,0,9.387-4.267,11.093l-15.36,6.827C35.267,401.067,33.56,401.067,32.707,401.067z
		 M466.2,396.8c-0.853,0-2.56,0-3.413-0.853l-15.36-6.827c-4.267-1.707-5.973-6.827-4.267-11.093
		c1.707-4.267,6.827-5.973,11.093-4.267l15.36,6.827c4.267,1.707,5.973,6.827,4.267,11.093
		C473.027,395.093,469.613,396.8,466.2,396.8z M78.787,379.733c-3.413,0-5.973-1.707-7.68-5.12c-1.707-4.267,0-9.387,4.267-11.093
		l15.36-6.827c4.267-1.707,9.387,0,11.093,4.267c1.707,4.267,0,9.387-4.267,11.093L82.2,378.88
		C81.347,379.733,80.493,379.733,78.787,379.733z M420.12,375.467c-0.853,0-2.56,0-3.413-0.853l-15.36-7.68
		c-4.267-1.707-5.973-6.827-4.267-11.093c1.707-4.267,6.827-5.973,11.093-4.267l15.36,6.827c4.267,1.707,5.973,6.827,4.267,11.093
		C426.093,372.907,423.533,375.467,420.12,375.467z M125.72,358.4c-3.413,0-5.973-1.707-7.68-5.12
		c-1.707-4.267,0-9.387,4.267-11.093l15.36-6.827c4.267-1.707,9.387,0,11.093,4.267s0,9.387-4.267,11.093l-15.36,6.827
		C128.28,357.547,126.573,358.4,125.72,358.4z M373.187,353.28c-0.853,0-2.56,0-3.413-0.853l-15.36-6.827
		c-4.267-1.707-5.973-6.827-4.267-11.093s6.827-5.973,11.093-4.267l15.36,6.827c4.267,1.707,5.973,6.827,4.267,11.093
		C380.013,351.573,376.6,353.28,373.187,353.28z M171.8,337.067c-3.413,0-5.973-1.707-7.68-5.12c-1.707-4.267,0-9.387,4.267-11.093
		l15.36-6.827c4.267-1.707,9.387,0,11.093,4.267c1.707,4.267,0,9.387-4.267,11.093l-15.36,6.827
		C174.36,336.213,173.507,337.067,171.8,337.067z M327.107,331.947c-0.853,0-2.56,0-3.413-0.853l-15.36-6.827
		c-4.267-1.707-5.973-6.827-4.267-11.093c1.707-4.267,6.827-5.973,11.093-4.267l15.36,6.827c4.267,1.707,5.973,6.827,4.267,11.093
		C333.08,330.24,330.52,331.947,327.107,331.947z M218.733,314.88c-3.413,0-5.973-1.707-7.68-5.12
		c-1.707-4.267,0-9.387,4.267-11.093l15.36-6.827c4.267-1.707,9.387,0,11.093,4.267c1.707,4.267,0,9.387-4.267,11.093l-15.36,6.827
		C221.293,314.88,219.587,314.88,218.733,314.88z M281.027,310.613c-0.853,0-2.56,0-3.413-0.853l-15.36-6.827
		c-4.267-1.707-5.973-6.827-4.267-11.093s6.827-5.973,11.093-4.267l15.36,6.827c4.267,1.707,5.973,6.827,4.267,11.093
		C287,308.907,283.587,310.613,281.027,310.613z"/>
	<path d="M254.573,230.4c-5.12,0-8.533-3.413-8.533-8.533V204.8c0-5.12,3.413-8.533,8.533-8.533c5.12,0,8.533,3.413,8.533,8.533
		v17.067C263.107,226.987,259.693,230.4,254.573,230.4z M254.573,179.2c-5.12,0-8.533-3.413-8.533-8.533V153.6
		c0-5.12,3.413-8.533,8.533-8.533c5.12,0,8.533,3.413,8.533,8.533v17.067C263.107,175.787,259.693,179.2,254.573,179.2z
		 M254.573,128c-5.12,0-8.533-3.413-8.533-8.533V102.4c0-5.12,3.413-8.533,8.533-8.533c5.12,0,8.533,3.413,8.533,8.533v17.067
		C263.107,124.587,259.693,128,254.573,128z M254.573,76.8c-5.12,0-8.533-3.413-8.533-8.533V51.2c0-5.12,3.413-8.533,8.533-8.533
		c5.12,0,8.533,3.413,8.533,8.533v17.067C263.107,73.387,259.693,76.8,254.573,76.8z M254.573,25.6c-5.12,0-8.533-3.413-8.533-8.533
		V8.533c0-5.12,3.413-8.533,8.533-8.533c5.12,0,8.533,3.413,8.533,8.533v8.533C263.107,22.187,259.693,25.6,254.573,25.6z"/>
</g>
<g>
</g>
<g>
</g>
<g>
</g>
<g>
</g>
<g>
</g>
<g>
</g>
<g>
</g>
<g>
</g>
<g>
</g>
<g>
</g>
<g>
</g>
<g>
</g>
<g>
</g>
<g>
</g>
<g>
</g>
</svg>
