<?xml version="1.0" encoding="iso-8859-1"?>
<!-- Generator: Adobe Illustrator 19.0.0, SVG Export Plug-In . SVG Version: 6.00 Build 0)  -->
<svg xmlns="http://www.w3.org/2000/svg" xmlns:xlink="http://www.w3.org/1999/xlink" version="1.1" id="Layer_1" x="0px" y="0px" viewBox="0 0 512 512" style="enable-background:new 0 0 512 512;" xml:space="preserve" width="512px" height="512px">
<g>
	<g>
		<path d="M346.516,256l125.406-125.414c25-24.992,25-65.516,0-90.508c-12.5-12.5-28.875-18.75-45.25-18.75    s-32.766,6.25-45.266,18.75L256,165.492L90.516,0L0,90.508L165.484,256L21.328,400.156v90.516h90.516L256,346.508L421.484,512    L512,421.492L346.516,256z M331.422,240.914l-22.562-22.562l95.25-95.242l22.562,22.562L331.422,240.914z M396.5,55.156    c8.062-8.055,18.766-12.492,30.172-12.492c11.391,0,22.109,4.438,30.172,12.492c16.625,16.641,16.625,43.711,0,60.344    l-15.094,15.086l-60.344-60.344L396.5,55.156z M366.328,85.328l22.688,22.695l-95.234,95.242l-22.703-22.688L366.328,85.328z     M42.656,469.336v-17.672l17.688,17.672H42.656z M103,469.336H90.5l-47.844-47.844V409l137.922-137.914l22.688,22.695    L96.828,400.227c-4.172,4.164-4.172,10.922,0,15.086c4.156,4.164,10.906,4.164,15.078,0l106.453-106.445l22.562,22.555    L103,469.336z M30.172,90.508l60.344-60.336l29.719,29.719l-15.094,15.086c-4.156,4.164-4.156,10.922,0,15.086    c4.172,4.164,10.922,4.164,15.094,0c0,0,0-0.008,0.016-0.016l15.062-15.07l30.172,30.172l-15.078,15.086    c-4.172,4.164-4.172,10.922,0,15.086c4.156,4.164,10.922,4.164,15.078,0c0-0.008,0-0.008,0-0.008l15.094-15.078l30.172,30.172    l-15.078,15.07c0,0-0.016,0.008-0.016,0.016c-4.156,4.164-4.156,10.914,0,15.078c4.172,4.172,10.922,4.172,15.094,0v0.008    l15.078-15.086L256,195.656l-15.078,15.086c-4.172,4.172-4.172,10.922,0,15.086c4.156,4.164,10.906,4.164,15.078,0l15.078-15.086    l30.172,30.172L286.172,256c-4.172,4.164-4.172,10.922,0,15.086c4.156,4.164,10.922,4.164,15.078,0    c0.016-0.008,0.016-0.008,0.016-0.008L316.344,256l30.172,30.172l-15.094,15.078v0.008c-4.156,4.164-4.156,10.914,0,15.086    c4.172,4.164,10.922,4.164,15.094,0l15.078-15.086l30.172,30.172l-15.078,15.078c-4.172,4.172-4.172,10.922,0,15.086    c4.156,4.164,10.906,4.172,15.078,0c0,0,0,0,0-0.008l15.078-15.078l30.172,30.172l-15.062,15.078l-0.016,0.008    c-4.172,4.164-4.172,10.922,0,15.086s10.922,4.164,15.078,0l15.094-15.086l29.719,29.727l-60.344,60.336L30.172,90.508z" fill="#FFFFFF"/>
	</g>
</g>
<g>
</g>
<g>
</g>
<g>
</g>
<g>
</g>
<g>
</g>
<g>
</g>
<g>
</g>
<g>
</g>
<g>
</g>
<g>
</g>
<g>
</g>
<g>
</g>
<g>
</g>
<g>
</g>
<g>
</g>
</svg>
