<?xml version="1.0" encoding="iso-8859-1"?>
<!-- Generator: Adobe Illustrator 19.0.0, SVG Export Plug-In . SVG Version: 6.00 Build 0)  -->
<svg xmlns="http://www.w3.org/2000/svg" xmlns:xlink="http://www.w3.org/1999/xlink" version="1.1" id="Layer_1" x="0px" y="0px" viewBox="0 0 512.868 512.868" style="enable-background:new 0 0 512.868 512.868;" xml:space="preserve" width="512px" height="512px">
<g>
	<g>
		<rect x="265.112" y="303.729" width="43.39" height="52.068" fill="#FFFFFF"/>
	</g>
</g>
<g>
	<g>
		<rect x="4.773" y="303.729" width="121.492" height="52.068" fill="#FFFFFF"/>
	</g>
</g>
<g>
	<g>
		<rect x="204.366" y="373.153" width="104.136" height="52.068" fill="#FFFFFF"/>
	</g>
</g>
<g>
	<g>
		<rect x="204.366" y="234.305" width="78.102" height="52.068" fill="#FFFFFF"/>
	</g>
</g>
<g>
	<g>
		<rect x="82.875" y="234.305" width="104.136" height="52.068" fill="#FFFFFF"/>
	</g>
</g>
<g>
	<g>
		<rect x="143.62" y="164.881" width="104.136" height="52.068" fill="#FFFFFF"/>
	</g>
</g>
<g>
	<g>
		<rect x="4.773" y="373.153" width="60.746" height="52.068" fill="#FFFFFF"/>
	</g>
</g>
<g>
	<g>
		<rect x="4.773" y="164.881" width="121.492" height="52.068" fill="#FFFFFF"/>
	</g>
</g>
<g>
	<g>
		<rect x="447.349" y="303.729" width="60.746" height="52.068" fill="#FFFFFF"/>
	</g>
</g>
<g>
	<g>
		<path d="M438.671,442.576V512h60.746c5.207,0,8.678-3.471,8.678-8.678v-60.746H438.671z" fill="#FFFFFF"/>
	</g>
</g>
<g>
	<g>
		<rect x="447.349" y="373.153" width="60.746" height="52.068" fill="#FFFFFF"/>
	</g>
</g>
<g>
	<g>
		<rect x="473.383" y="234.305" width="34.712" height="52.068" fill="#FFFFFF"/>
	</g>
</g>
<g>
	<g>
		<path d="M195.688,78.102H82.875v69.424h121.492V86.78C204.366,81.573,200.895,78.102,195.688,78.102z" fill="#FFFFFF"/>
	</g>
</g>
<g>
	<g>
		<path d="M13.451,78.102c-5.207,0-8.678,3.471-8.678,8.678v60.746h60.746V78.102H13.451z" fill="#FFFFFF"/>
	</g>
</g>
<g>
	<g>
		<path d="M4.773,442.576v60.746c0,5.207,3.471,8.678,8.678,8.678h112.814v-69.424H4.773z" fill="#FFFFFF"/>
	</g>
</g>
<g>
	<g>
		<rect x="265.112" y="442.576" width="52.068" height="69.424" fill="#FFFFFF"/>
	</g>
</g>
<g>
	<g>
		<rect x="143.62" y="303.729" width="104.136" height="52.068" fill="#FFFFFF"/>
	</g>
</g>
<g>
	<g>
		<rect x="4.773" y="234.305" width="60.746" height="52.068" fill="#FFFFFF"/>
	</g>
</g>
<g>
	<g>
		<rect x="82.875" y="373.153" width="104.136" height="52.068" fill="#FFFFFF"/>
	</g>
</g>
<g>
	<g>
		<rect x="143.62" y="442.576" width="104.136" height="69.424" fill="#FFFFFF"/>
	</g>
</g>
<g>
	<g>
		<path d="M471.647,196.99L394.414,12.149C391.81,5.207,384.868,0,377.058,0c-7.81,0-14.753,4.339-17.356,12.149l-75.498,185.708    c-3.471,8.678-2.603,17.356,2.603,25.166c5.207,7.81,13.017,12.149,22.563,12.149h42.522v52.068    c-8.678,0-16.488,4.339-21.695,11.281c-4.339,6.942-5.207,15.62-2.603,23.43l6.942,18.224c0,0,0.868,0.868,0.868,1.736    c8.678,15.62,10.414,55.539,2.603,79.837c-0.868,1.736-0.868,3.471-1.736,4.339h32.976c5.207,0,8.678,3.471,8.678,8.678    c0,5.207-3.471,8.678-8.678,8.678h-34.712V460.8h34.712c5.207,0,8.678,3.471,8.678,8.678c0,5.207-3.471,8.678-8.678,8.678h-33.844    c4.339,19.959,21.695,34.712,42.522,34.712c24.298,0,43.39-19.092,43.39-43.39v-26.034c0-6.075-1.736-15.62-3.471-21.695    c-7.81-26.034-6.942-65.085,1.736-80.705v-0.868l6.942-18.224c3.471-7.81,2.603-16.488-2.603-23.431    c-3.471-7.81-11.281-12.149-19.959-12.149v-52.068h42.522c8.678,0,17.356-4.339,22.563-12.149S475.119,205.668,471.647,196.99z     M386.603,286.373h-17.356v-52.068h17.356V286.373z M455.159,211.742c-1.736,2.603-5.207,4.339-7.81,4.339h-52.068H360.57v0.868    h-51.2c-3.471,0-6.075-1.736-7.81-4.339s-2.603-6.075-0.868-8.678L376.19,18.224c0,0,0-0.868,1.736-0.868    c0.868,0,0.868,0.868,0.868,0.868l77.234,184.841C456.895,206.536,456.895,209.139,455.159,211.742z" fill="#FFFFFF"/>
	</g>
</g>
<g>
</g>
<g>
</g>
<g>
</g>
<g>
</g>
<g>
</g>
<g>
</g>
<g>
</g>
<g>
</g>
<g>
</g>
<g>
</g>
<g>
</g>
<g>
</g>
<g>
</g>
<g>
</g>
<g>
</g>
</svg>
