<?xml version="1.0" encoding="iso-8859-1"?>
<!-- Generator: Adobe Illustrator 19.0.0, SVG Export Plug-In . SVG Version: 6.00 Build 0)  -->
<svg xmlns="http://www.w3.org/2000/svg" xmlns:xlink="http://www.w3.org/1999/xlink" version="1.1" id="Layer_1" x="0px" y="0px" viewBox="0 0 511.995 511.995" style="enable-background:new 0 0 511.995 511.995;" xml:space="preserve" width="512px" height="512px">
<g>
	<g>
		<path d="M314.341,61.412c-1.437-5.71-7.218-9.186-12.937-7.757l-85.35,21.335c-4.75,1.188-8.094,5.453-8.094,10.344v128.007    h-10.406c-5.891,0-10.672,4.781-10.672,10.672v147.328c-0.156,0.719-0.234,1.438-0.234,2.203v74.67    c0,5.891,4.781,10.656,10.672,10.656h10.141c-1.406,7.047-5.141,16.406-14.75,23c-11.531,7.922-29.062,10.531-52.14,7.766    c-31.203-3.75-71.578-17.328-120.015-40.391c-5.312-2.531-11.688-0.266-14.219,5.047c-2.531,5.328-0.266,11.688,5.062,14.219    c60.843,28.953,109.655,43.484,145.937,43.484c19.625,0,35.578-4.25,47.796-12.766c17.125-11.953,22.391-29.047,23.906-40.359    h10.953c5.891,0,10.656-4.766,10.656-10.656v-40.469c0.156-0.719,0.234-1.438,0.234-2.203V277.341    c5.781-0.125,10.438-4.844,10.438-10.656v-21.336c0-5.82-4.656-10.539-10.438-10.656v-10.679c0-5.891-4.766-10.672-10.672-10.672    h-10.906V93.67l77.288-19.32C312.279,72.92,315.779,67.131,314.341,61.412z M218.633,426.869c0-5.875-4.766-10.655-10.641-10.655    h21.297C223.399,416.214,218.634,420.995,218.633,426.869z M207.992,437.542c5.875-0.016,10.641-4.781,10.641-10.671    c-0.001,5.906,4.781,10.671,10.671,10.671H207.992z M229.554,234.677v160.195H208.21V234.677H229.554z" fill="#FFFFFF"/>
	</g>
</g>
<g>
	<g>
		<path d="M506.309,11.71C503.465,0,488.215,0,479.09,0c-35.968,0-112.749,12.882-125.437,15.976    c-23.25,5.664-38.125,23.758-33.875,41.195c3.281,13.539,17.562,22.64,35.5,22.64c4.469,0,9.031-0.555,13.531-1.648    c9.281-2.273,43.375-13.172,73.531-24.429c17.594-6.57,31.593-12.391,41.624-17.305c6.25-3.047,10.875-5.727,14.219-8.172    C505.028,23.241,507.778,17.671,506.309,11.71z M427.904,36.319c-27.625,10.078-56.437,19.235-64.156,21.117    c-2.844,0.687-5.688,1.039-8.469,1.039c-8.281,0-14.031-3.226-14.781-6.351c-1.031-4.227,5.531-12.336,18.188-15.422    c11.5-2.797,69.375-12.391,105.874-14.812C455.967,25.632,444.154,30.39,427.904,36.319z" fill="#FFFFFF"/>
	</g>
</g>
<g>
</g>
<g>
</g>
<g>
</g>
<g>
</g>
<g>
</g>
<g>
</g>
<g>
</g>
<g>
</g>
<g>
</g>
<g>
</g>
<g>
</g>
<g>
</g>
<g>
</g>
<g>
</g>
<g>
</g>
</svg>
