<?xml version="1.0" encoding="iso-8859-1"?>
<!-- Generator: Adobe Illustrator 16.0.0, SVG Export Plug-In . SVG Version: 6.00 Build 0)  -->
<!DOCTYPE svg PUBLIC "-//W3C//DTD SVG 1.1//EN" "http://www.w3.org/Graphics/SVG/1.1/DTD/svg11.dtd">
<svg xmlns="http://www.w3.org/2000/svg" xmlns:xlink="http://www.w3.org/1999/xlink" version="1.1" id="Capa_1" x="0px" y="0px" width="512px" height="512px" viewBox="0 0 209.09 209.09" style="enable-background:new 0 0 209.09 209.09;" xml:space="preserve">
<g>
	<path d="M121.774,120.752c0-22.382-18.208-40.592-40.59-40.592c-22.383,0-40.59,18.209-40.59,40.592   c0,1.007,0.066,2.085,0.164,3.21H0v21.32h19.898c-1.179,5.869-0.025,10.609,3.472,14.106l1.518,1.513l1.184-1.787   c2.912-4.387,9.296-11.48,12.89-10.731c0.707,0.972,1.475,1.95,2.291,2.912c1.247,13.233,5.537,34.718,20.223,34.718h2.141   l-0.423-2.104c-0.659-3.247-1.812-12.442,0.736-15.916c0.385-0.521,0.827-0.862,1.362-1.048c0.173,0.145,0.38,0.325,0.621,0.527   c5.22,4.477,21.106,18.11,33.217,18.11c3.171,0,5.876-0.944,8.035-2.793l1.629-1.393l-1.691-1.317   c-2.706-2.108-9.757-8.521-9.858-12.799c-0.014-0.698,0.174-1.28,0.592-1.804c0.838,0.038,2.281,0.086,4.143,0.086   c12.787,0,34.484-2.104,36.14-16.181l0.246-2.132l-2.136,0.182c-0.034,0.007-1.465,0.12-3.501,0.12   c-5.492,0-9.653-0.832-11.728-2.276h88.09v-21.313h-87.48C121.706,122.837,121.774,121.759,121.774,120.752z M44.098,120.752   c0-20.452,16.638-37.087,37.086-37.087c20.447,0,37.086,16.635,37.086,37.087c0,1-0.055,2.05-0.164,3.21H93.298   c0.017-0.062,0.021-0.123,0.038-0.185c0.026-0.096,0.036-0.191,0.06-0.287c0.214-0.903,0.344-1.817,0.344-2.738   c0-6.926-5.631-12.559-12.556-12.559c-6.925,0-12.556,5.633-12.556,12.559c0,0.925,0.13,1.835,0.344,2.738   c0.021,0.096,0.034,0.191,0.06,0.287c0.017,0.062,0.021,0.123,0.038,0.185H44.262C44.154,122.802,44.098,121.752,44.098,120.752z    M72.833,123.962c-0.099-0.242-0.21-0.492-0.287-0.738c-0.06-0.192-0.127-0.381-0.173-0.575c-0.147-0.63-0.241-1.26-0.241-1.896   c0-4.989,4.062-9.055,9.052-9.055c4.989,0,9.051,4.065,9.051,9.055c0,0.637-0.094,1.267-0.241,1.896   c-0.046,0.194-0.113,0.383-0.173,0.575c-0.074,0.246-0.188,0.496-0.288,0.738H72.833z M24.513,155.258   c-1.661-2.577-2.005-5.869-1.042-9.976h12.395C31.251,146.877,26.737,152.264,24.513,155.258z M116.757,145.775   c2.409,4.37,10.013,5.29,15.971,5.29c0.511,0,0.993-0.01,1.428-0.021c-3.56,9.897-23.395,11.02-32.177,11.02   c-2.849,0-4.685-0.112-4.714-0.116l-0.71-0.048l-0.544,0.466c-1.531,1.307-2.317,3.038-2.267,5.01   c0.123,5.194,6.125,11.122,9.335,13.928c-1.146,0.523-2.454,0.787-3.949,0.787c-7.173,0-17.584-5.807-30.936-17.261   c-1.412-1.215-1.528-1.314-1.98-1.438l-0.321-0.089l-0.334,0.034c-1.812,0.191-3.354,1.095-4.457,2.601   c-3.032,4.141-2.334,12.279-1.742,16.354c-10.828-2.361-13.856-22.778-14.669-31.86l-0.053-0.562l-0.368-0.428   c-0.984-1.136-1.92-2.319-2.789-3.552l-0.294-0.421l-0.448-0.182h8.159c0.424,0.555,0.907,1.054,1.358,1.581   c0.484,0.575,0.95,1.164,1.461,1.704c0.579,0.609,1.2,1.164,1.809,1.735c0.544,0.51,1.069,1.037,1.637,1.516   c0.64,0.534,1.321,1.007,1.99,1.503c0.595,0.441,1.17,0.906,1.786,1.311c0.702,0.462,1.438,0.849,2.163,1.267   c0.631,0.365,1.247,0.752,1.899,1.084c0.767,0.387,1.562,0.695,2.351,1.037c0.652,0.277,1.283,0.592,1.949,0.835   c0.847,0.312,1.72,0.534,2.589,0.794c0.638,0.191,1.259,0.414,1.902,0.571c0.993,0.236,2.006,0.38,3.015,0.548   c0.546,0.086,1.078,0.223,1.629,0.287c1.569,0.188,3.154,0.284,4.751,0.284c1.599,0,3.183-0.096,4.752-0.284   c0.551-0.064,1.083-0.201,1.629-0.287c1.01-0.168,2.026-0.312,3.015-0.548c0.646-0.157,1.268-0.38,1.903-0.571   c0.87-0.253,1.742-0.482,2.589-0.794c0.663-0.243,1.297-0.558,1.949-0.835c0.789-0.342,1.588-0.65,2.351-1.037   c0.652-0.332,1.264-0.719,1.899-1.084c0.726-0.418,1.461-0.805,2.163-1.267c0.616-0.404,1.191-0.869,1.787-1.311   c0.669-0.496,1.35-0.966,1.991-1.503c0.57-0.479,1.094-1.006,1.638-1.516c0.609-0.571,1.232-1.126,1.807-1.735   c0.514-0.54,0.979-1.129,1.461-1.704c0.452-0.527,0.935-1.026,1.359-1.581h3.012L116.757,145.775z M108.626,145.607   c-0.368,0.4-0.765,0.78-1.15,1.167c-0.599,0.605-1.201,1.205-1.839,1.763c-0.432,0.38-0.88,0.732-1.324,1.092   c-0.639,0.51-1.287,1.013-1.956,1.478c-0.478,0.336-0.963,0.65-1.455,0.955c-0.683,0.432-1.381,0.842-2.089,1.229   c-0.506,0.281-1.018,0.544-1.542,0.801c-0.732,0.356-1.479,0.678-2.235,0.986c-0.525,0.212-1.052,0.431-1.588,0.619   c-0.799,0.284-1.608,0.517-2.421,0.742c-0.515,0.147-1.03,0.309-1.552,0.432c-0.909,0.212-1.826,0.355-2.751,0.499   c-0.448,0.072-0.893,0.171-1.35,0.223c-1.385,0.161-2.779,0.253-4.184,0.253c-1.405,0-2.803-0.092-4.184-0.253   c-0.456-0.052-0.902-0.15-1.35-0.223c-0.924-0.144-1.843-0.287-2.75-0.499c-0.523-0.123-1.039-0.284-1.554-0.432   c-0.812-0.226-1.625-0.458-2.421-0.742c-0.536-0.188-1.061-0.407-1.588-0.619c-0.753-0.309-1.502-0.63-2.235-0.986   c-0.522-0.253-1.033-0.52-1.542-0.801c-0.712-0.383-1.407-0.797-2.089-1.229c-0.491-0.308-0.977-0.623-1.455-0.955   c-0.669-0.465-1.317-0.965-1.956-1.478c-0.445-0.359-0.896-0.712-1.324-1.092c-0.637-0.558-1.241-1.157-1.84-1.763   c-0.385-0.387-0.782-0.767-1.149-1.167c-0.094-0.103-0.175-0.223-0.266-0.325h55.413   C108.8,145.392,108.722,145.505,108.626,145.607z M205.586,141.778h-83.395h-6.153h-4.333H50.668h-4.334h-25.54H3.504v-14.312   h37.647h29.432h3.953h13.295h3.952h29.433h84.37V141.778z" fill="#FFFFFF"/>
	<path d="M151.732,92.345c0.082,0.495,0.298,1.799,8.723,11.591l1.94,2.256l1.033-2.793c0.274-0.746,6.722-18.475,4.572-35.587   l-0.103-0.743c-1.218-8.651-5.913-15.759-10.058-22.028c-4.274-6.468-8.306-12.577-7.889-19.231l0.172-2.732L91.389,45.882   c-3.371-0.455-6.781-0.756-10.205-0.756c-13.597,0-26.339,3.658-37.377,9.965c0.638-2.873,0.039-5.778-1.949-7.768   c-3.261-3.267-9.517-2.714-13.396,1.16c-4.016,4.014-4.534,10.021-1.16,13.396c1.093,1.097,2.509,1.812,4.086,2.096   C15.591,77.849,5.551,98.132,5.551,120.759v1.753h26.282v-1.753c0-27.214,22.136-49.351,49.351-49.351s49.351,22.136,49.351,49.351   v1.753h26.282v-1.753c0-28.167-15.44-53.101-38.903-66.112l16.45-10.121c2.307,6.136,9.661,23.998,18.836,29.16   C152.512,80.607,151.52,91.077,151.732,92.345z M30.943,50.952c1.511-1.506,3.431-2.372,5.277-2.372c0.89,0,2.163,0.21,3.164,1.211   c2.005,2.005,1.483,5.794-1.162,8.442c-1.508,1.508-3.431,2.374-5.275,2.374c-0.89,0-2.161-0.21-3.164-1.213   C27.774,57.388,28.294,53.603,30.943,50.952z M153.295,119h-19.283c-0.932-28.337-24.271-51.104-52.828-51.104   c-28.56,0-51.899,22.768-52.828,51.104H9.076c0.932-38.968,32.923-70.378,72.108-70.378c4.267,0,8.543,0.371,12.699,1.112   c1.973,0.349,3.907,0.796,5.818,1.295l13.798,5.239C136.893,67.966,152.649,91.789,153.295,119z M136.941,41.334l-0.712-2.072   L114.317,52.74c-4.295-2.089-8.827-3.795-13.565-5.053l-2.193-0.832l47.914-18.608c0.503,6.687,4.373,12.552,8.445,18.721   c4.131,6.251,8.401,12.72,9.511,20.588l0.096,0.689c1.54,12.305-1.731,25.339-3.439,31.017c-2.885-3.438-5.599-6.841-5.89-7.426   c-0.082-1.121,0.767-10.631,1.612-19.007l0.13-1.268l-1.174-0.512C145.722,66.681,137.03,41.586,136.941,41.334z" fill="#FFFFFF"/>
</g>
<g>
</g>
<g>
</g>
<g>
</g>
<g>
</g>
<g>
</g>
<g>
</g>
<g>
</g>
<g>
</g>
<g>
</g>
<g>
</g>
<g>
</g>
<g>
</g>
<g>
</g>
<g>
</g>
<g>
</g>
</svg>
