<?xml version="1.0" encoding="iso-8859-1"?>
<!-- Generator: Adobe Illustrator 16.0.0, SVG Export Plug-In . SVG Version: 6.00 Build 0)  -->
<!DOCTYPE svg PUBLIC "-//W3C//DTD SVG 1.1//EN" "http://www.w3.org/Graphics/SVG/1.1/DTD/svg11.dtd">
<svg xmlns="http://www.w3.org/2000/svg" xmlns:xlink="http://www.w3.org/1999/xlink" version="1.1" id="Capa_1" x="0px" y="0px" width="512px" height="512px" viewBox="0 0 500 500" style="enable-background:new 0 0 500 500;" xml:space="preserve">
<g>
	<g>
		<path d="M489.559,39.568H10.44C4.673,39.568,0,44.245,0,50.011v53.126c0,5.768,4.674,10.441,10.44,10.441H57.8    C64.992,214.58,149.456,294.56,252.256,294.56c102.805,0,187.268-79.98,194.459-180.982h42.844    c5.766,0,10.441-4.674,10.441-10.441V50.011C500,44.245,495.324,39.568,489.559,39.568z M252.256,270.832    c-89.709,0-163.517-69.351-170.654-157.253h341.312C415.777,201.482,341.969,270.832,252.256,270.832z" fill="#FFFFFF"/>
		<path d="M263.719,362.972c-1.881,0-3.619,1.01-4.559,2.641c-2.775,4.825-27.108,47.608-27.108,63.151    c0,17.46,14.204,31.668,31.667,31.668c17.463,0,31.668-14.208,31.668-31.668c0-15.543-24.33-58.326-27.106-63.151    C267.34,363.982,265.602,362.972,263.719,362.972z" fill="#FFFFFF"/>
		<path d="M98.055,288.432c-1.882,0-3.621,1.01-4.558,2.644c-2.777,4.825-27.111,47.607-27.111,63.146    c0,17.462,14.206,31.673,31.669,31.673s31.668-14.211,31.668-31.673c0-15.539-24.332-58.321-27.11-63.146    C101.676,289.442,99.938,288.432,98.055,288.432z" fill="#FFFFFF"/>
		<path d="M413.719,288.432c-1.885,0-3.621,1.01-4.559,2.644c-2.775,4.825-27.111,47.607-27.111,63.146    c0,17.462,14.207,31.673,31.67,31.673c17.461,0,31.668-14.211,31.668-31.673c0-15.539-24.332-58.321-27.109-63.146    C417.338,289.442,415.602,288.432,413.719,288.432z" fill="#FFFFFF"/>
	</g>
</g>
<g>
</g>
<g>
</g>
<g>
</g>
<g>
</g>
<g>
</g>
<g>
</g>
<g>
</g>
<g>
</g>
<g>
</g>
<g>
</g>
<g>
</g>
<g>
</g>
<g>
</g>
<g>
</g>
<g>
</g>
</svg>
