<svg xmlns="http://www.w3.org/2000/svg" viewBox="0 0 483.41 102.01"><defs><style>.cls-1{fill:#191917;}.cls-2{fill:#f18640;}.cls-3{fill:#383533;}</style></defs><title>Ativo 72</title><g id="Camada_2" data-name="Camada 2"><g id="Camada_1-2" data-name="Camada 1"><path id="_Caminho_composto_" data-name="&lt;Caminho composto&gt;" class="cls-1" d="M176.29,0l7.08.51a38.32,38.32,0,0,1,12.09,2.56C203,6.16,207,11.75,207.12,19.89q.19,19.19,0,38.39a17,17,0,0,1-8.61,15l-.81.52a1.6,1.6,0,0,0-.17.24l25.28,25.54c-2.44-.12-4.5.36-6.59-.78-12.06-6.6-24.17-13.1-36.27-19.6a4.82,4.82,0,0,0-2.16-.54c-11.47-.09-22.94,0-34.4-.23a49.7,49.7,0,0,1-19.28-3.83c-5.43-2.39-9.62-6-11.11-12a24.92,24.92,0,0,1-.65-5.84c-.06-11.63.14-23.26-.08-34.89C112,10.87,117.86,4.94,127,2.2,131.71.79,136.56.49,141.43.26c1.16-.05,2.31-.17,3.47-.26Zm13.63,39.39c0-6,0-11.91,0-17.86a4.33,4.33,0,0,0-2.38-4.14,9.55,9.55,0,0,0-2.87-1.21,67.5,67.5,0,0,0-10.12-1.4c-10.78-.18-21.56-.11-32.34,0a24.24,24.24,0,0,0-9.09,1.61c-3,1.22-3.9,2.61-3.9,5.79q0,17.08,0,34.16c0,3.41.94,5,4.25,6a31,31,0,0,0,8.27,1.42c12,.08,24,0,36-.2a21.79,21.79,0,0,0,9.46-2.1A4.53,4.53,0,0,0,190,56.89C189.87,51.06,189.93,45.22,189.93,39.39Z"/><path id="_Caminho_" data-name="&lt;Caminho&gt;" class="cls-1" d="M307.69,44.05q0,7.43,0,14.86a14,14,0,0,0,1.6,6.5c2.42,4.65,6.34,7.62,11,9.68,6.39,2.82,13.16,3.51,20,3.52q26.2,0,52.41,0h1.46V63.81h-1.49q-26,0-52,0a47.69,47.69,0,0,1-6.74-.31,31.68,31.68,0,0,1-6.38-1.63,4.22,4.22,0,0,1-2.88-4.54c.06-1,0-2.09,0-3.14,0-2.16,0-4.32,0-6.62h69.54V31.08H324.73c0-2.29,0-4.46,0-6.62,0-1,.05-2.1,0-3.14a4.22,4.22,0,0,1,2.88-4.54A31.68,31.68,0,0,1,334,15.14a47.69,47.69,0,0,1,6.74-.31q26,0,52,0h1.49V0h-1.46q-26.2,0-52.41,0c-6.88,0-13.66.7-20,3.52-4.68,2.07-8.6,5-11,9.68a14,14,0,0,0-1.6,6.5q0,7.9,0,15.81Z"/><path id="_Caminho_2" data-name="&lt;Caminho&gt;" class="cls-1" d="M470.44,0l2.22.48a9.17,9.17,0,0,1,7.26,6.35,9,9,0,0,1-2.43,9.33c-2.35,2.41-5,4.55-7.53,6.78l-45.66,40c-.27.23-.52.49-1,.93h60.1V78.62H409.93c-5.82,0-10-3.28-11-8.63-.68-3.63.73-6.53,3.42-8.89l14.42-12.67L453.9,15.75c.29-.26.57-.54,1-1h-52.6V0Z"/><path id="_Caminho_3" data-name="&lt;Caminho&gt;" class="cls-1" d="M302.84,0V14.66h-1.6c-19.2,0-38.4,0-57.6.1a28.94,28.94,0,0,0-7.34,1.19c-2.48.68-3.62,2-3.6,5q.13,17.87,0,35.74c0,2.42,1,4.17,3.1,4.93a40.62,40.62,0,0,0,7.55,1.89,47.87,47.87,0,0,0,7.1.32q25.36,0,50.71,0h1.55V78.53c-.33,0-.71.08-1.09.08-17.55,0-35.1,0-52.64,0-6.62,0-13.18-.61-19.5-2.79a23.71,23.71,0,0,1-8.25-4.63,15.85,15.85,0,0,1-5.54-12q-.16-20.16,0-40.33c0-5.65,2.86-9.93,7.53-13a34.74,34.74,0,0,1,14.7-5c2.38-.33,4.79-.51,7.18-.76Z"/><path id="_Caminho_4" data-name="&lt;Caminho&gt;" class="cls-1" d="M119.87,81.09H118.5c-5.8,0-11.59,0-17.39,0a1.94,1.94,0,0,1-1.85-1Q80.1,51.57,60.89,23L60,21.74c-.32.44-.6.81-.86,1.19Q39.48,51.45,19.85,80a2.25,2.25,0,0,1-2.14,1.14c-5.43-.05-10.87,0-16.3,0H0c.31-.51.51-.87.75-1.22L49.6,7.6C51.22,5.19,53.06,3,56,2.22A11.57,11.57,0,0,1,68.95,6.93l8,11.63L119,79.83C119.29,80.18,119.51,80.54,119.87,81.09Z"/><path id="_Caminho_5" data-name="&lt;Caminho&gt;" class="cls-2" d="M58.8,51.91A12.44,12.44,0,1,1,46.35,64.39,12.34,12.34,0,0,1,58.8,51.91Z"/><path class="cls-3" d="M246.79,86.68a.72.72,0,0,1-.19.22.42.42,0,0,1-.25.07.7.7,0,0,1-.39-.17q-.22-.17-.56-.37a4.53,4.53,0,0,0-.81-.37,3.49,3.49,0,0,0-1.15-.17,3.36,3.36,0,0,0-1.12.17,2.4,2.4,0,0,0-.81.46,1.92,1.92,0,0,0-.49.69,2.19,2.19,0,0,0-.17.86,1.58,1.58,0,0,0,.29,1,2.49,2.49,0,0,0,.76.66,5.86,5.86,0,0,0,1.08.48l1.23.42q.63.22,1.23.48a4.34,4.34,0,0,1,1.08.68,3.11,3.11,0,0,1,.76,1,3.35,3.35,0,0,1,.29,1.47,4.74,4.74,0,0,1-.31,1.73,4,4,0,0,1-.92,1.41,4.29,4.29,0,0,1-1.48.94,5.44,5.44,0,0,1-2,.34,6.08,6.08,0,0,1-2.49-.49,5.84,5.84,0,0,1-1.91-1.34l.55-.9a.73.73,0,0,1,.19-.18.45.45,0,0,1,.25-.07.56.56,0,0,1,.29.1l.37.26.47.34a3.89,3.89,0,0,0,.6.34A4.1,4.1,0,0,0,242,97a4.2,4.2,0,0,0,1,.1,3.62,3.62,0,0,0,1.2-.19,2.56,2.56,0,0,0,.9-.52,2.27,2.27,0,0,0,.56-.81,2.7,2.7,0,0,0,.2-1,1.76,1.76,0,0,0-.29-1,2.4,2.4,0,0,0-.76-.68,5.27,5.27,0,0,0-1.08-.46L242.42,92a13.07,13.07,0,0,1-1.23-.47,4,4,0,0,1-1.08-.69,3.16,3.16,0,0,1-.76-1.05,4,4,0,0,1,0-3,3.69,3.69,0,0,1,.84-1.23,4.12,4.12,0,0,1,1.36-.86,5,5,0,0,1,1.86-.32,5.9,5.9,0,0,1,2.14.37,5.06,5.06,0,0,1,1.7,1.08Z"/><path class="cls-3" d="M264.19,91.5a8.1,8.1,0,0,1-.5,2.89,6.62,6.62,0,0,1-1.41,2.27,6.31,6.31,0,0,1-2.19,1.47,7.87,7.87,0,0,1-5.65,0,6.32,6.32,0,0,1-2.18-1.47,6.62,6.62,0,0,1-1.41-2.27,8.63,8.63,0,0,1,0-5.79,6.68,6.68,0,0,1,1.41-2.27,6.34,6.34,0,0,1,2.18-1.48,7.8,7.8,0,0,1,5.65,0,6.33,6.33,0,0,1,2.19,1.48,6.68,6.68,0,0,1,1.41,2.27A8.1,8.1,0,0,1,264.19,91.5Zm-1.95,0a7.14,7.14,0,0,0-.35-2.32,4.91,4.91,0,0,0-1-1.74,4.33,4.33,0,0,0-1.57-1.09,5.7,5.7,0,0,0-4.1,0,4.38,4.38,0,0,0-1.57,1.09,4.87,4.87,0,0,0-1,1.74,7.8,7.8,0,0,0,0,4.64,4.87,4.87,0,0,0,1,1.73,4.33,4.33,0,0,0,1.57,1.09,5.77,5.77,0,0,0,4.1,0,4.28,4.28,0,0,0,1.57-1.09,4.92,4.92,0,0,0,1-1.73A7.1,7.1,0,0,0,262.24,91.5Z"/><path class="cls-3" d="M275.84,96.92v1.6h-8v-14h1.89V96.92Z"/><path class="cls-3" d="M283.83,97a3.92,3.92,0,0,0,1.56-.29,3.27,3.27,0,0,0,1.16-.82,3.6,3.6,0,0,0,.73-1.26,5,5,0,0,0,.25-1.62V84.48h1.89V93a6.4,6.4,0,0,1-.39,2.25,5.23,5.23,0,0,1-1.11,1.8,5.05,5.05,0,0,1-1.76,1.19,6.52,6.52,0,0,1-4.66,0,5.1,5.1,0,0,1-1.76-1.19,5.19,5.19,0,0,1-1.11-1.8,6.4,6.4,0,0,1-.39-2.25V84.48h1.89V93a5,5,0,0,0,.25,1.62,3.59,3.59,0,0,0,.72,1.26,3.31,3.31,0,0,0,1.17.83A3.9,3.9,0,0,0,283.83,97Z"/><path class="cls-3" d="M304.68,96.56A6,6,0,0,1,302.76,98a6.74,6.74,0,0,1-2.66.63l-.17.59a3,3,0,0,1,1.31.53,1.1,1.1,0,0,1,.4.87,1.07,1.07,0,0,1-.16.57,1.35,1.35,0,0,1-.44.43,2.21,2.21,0,0,1-.67.27,3.73,3.73,0,0,1-.86.09,3.42,3.42,0,0,1-.76-.08,3.55,3.55,0,0,1-.67-.22l.17-.54a.22.22,0,0,1,.23-.18l.14,0,.19.08.26.08a1.63,1.63,0,0,0,.36,0,1,1,0,0,0,.62-.17.52.52,0,0,0,.21-.42.54.54,0,0,0-.41-.52,5.61,5.61,0,0,0-1.17-.25l.4-1.2a6.64,6.64,0,0,1-2.54-.65,6,6,0,0,1-1.94-1.5,6.67,6.67,0,0,1-1.24-2.21,8.57,8.57,0,0,1-.44-2.79,8.17,8.17,0,0,1,.5-2.91,6.66,6.66,0,0,1,1.41-2.27A6.29,6.29,0,0,1,297,84.85a7.22,7.22,0,0,1,2.79-.52,6.8,6.8,0,0,1,2.64.48,6.65,6.65,0,0,1,2,1.3l-.63.87a.52.52,0,0,1-.15.16.44.44,0,0,1-.25.06A.78.78,0,0,1,303,87a6.59,6.59,0,0,0-.67-.43,5,5,0,0,0-2.55-.62,5.11,5.11,0,0,0-2,.38,4.34,4.34,0,0,0-1.55,1.09,5,5,0,0,0-1,1.74,7,7,0,0,0-.36,2.32,6.77,6.77,0,0,0,.38,2.34,5.15,5.15,0,0,0,1,1.74,4.34,4.34,0,0,0,1.54,1.08,4.9,4.9,0,0,0,1.92.37,7.92,7.92,0,0,0,1.13-.07,4.64,4.64,0,0,0,.93-.23,3.9,3.9,0,0,0,.79-.4,5.65,5.65,0,0,0,.73-.57.51.51,0,0,1,.33-.15.36.36,0,0,1,.27.13Z"/><path class="cls-3" d="M320.56,91.5a8.1,8.1,0,0,1-.5,2.89,6.62,6.62,0,0,1-1.41,2.27,6.31,6.31,0,0,1-2.19,1.47,7.87,7.87,0,0,1-5.65,0,6.32,6.32,0,0,1-2.18-1.47,6.62,6.62,0,0,1-1.41-2.27,8.63,8.63,0,0,1,0-5.79,6.68,6.68,0,0,1,1.41-2.27,6.34,6.34,0,0,1,2.18-1.48,7.8,7.8,0,0,1,5.65,0,6.33,6.33,0,0,1,2.19,1.48,6.68,6.68,0,0,1,1.41,2.27A8.1,8.1,0,0,1,320.56,91.5Zm-1.95,0a7.14,7.14,0,0,0-.35-2.32,4.91,4.91,0,0,0-1-1.74,4.33,4.33,0,0,0-1.57-1.09,5.7,5.7,0,0,0-4.1,0A4.38,4.38,0,0,0,310,87.44a4.87,4.87,0,0,0-1,1.74,7.8,7.8,0,0,0,0,4.64,4.87,4.87,0,0,0,1,1.73,4.33,4.33,0,0,0,1.57,1.09,5.77,5.77,0,0,0,4.1,0,4.28,4.28,0,0,0,1.57-1.09,4.92,4.92,0,0,0,1-1.73A7.1,7.1,0,0,0,318.61,91.5Zm-3.72-9.28a.9.9,0,0,0,.4-.08.86.86,0,0,0,.29-.23,1,1,0,0,0,.18-.32,1.1,1.1,0,0,0,.06-.35h1.07a2.76,2.76,0,0,1-.12.81,2.11,2.11,0,0,1-.35.69,1.71,1.71,0,0,1-.56.48,1.61,1.61,0,0,1-.76.18,1.85,1.85,0,0,1-.79-.16,5.4,5.4,0,0,1-.65-.35l-.56-.35a1,1,0,0,0-.54-.16.82.82,0,0,0-.39.09.86.86,0,0,0-.28.23,1,1,0,0,0-.17.32,1.11,1.11,0,0,0-.06.35h-1.09a2.7,2.7,0,0,1,.12-.81,2.24,2.24,0,0,1,.35-.69,1.66,1.66,0,0,1,.56-.48,1.61,1.61,0,0,1,.76-.18,1.88,1.88,0,0,1,.79.16,5,5,0,0,1,.65.35l.56.35A1,1,0,0,0,314.88,82.23Z"/><path class="cls-3" d="M332.91,97v1.55h-8.65v-14h8.65V86h-6.75v4.66h5.47v1.49h-5.47V97Z"/><path class="cls-3" d="M343.72,86.68a.72.72,0,0,1-.19.22.42.42,0,0,1-.25.07.7.7,0,0,1-.39-.17q-.22-.17-.56-.37a4.53,4.53,0,0,0-.81-.37,3.49,3.49,0,0,0-1.15-.17,3.36,3.36,0,0,0-1.12.17,2.4,2.4,0,0,0-.81.46,1.92,1.92,0,0,0-.49.69,2.19,2.19,0,0,0-.17.86,1.58,1.58,0,0,0,.29,1,2.49,2.49,0,0,0,.76.66,5.86,5.86,0,0,0,1.08.48l1.23.42q.63.22,1.23.48a4.34,4.34,0,0,1,1.08.68,3.11,3.11,0,0,1,.76,1,3.35,3.35,0,0,1,.29,1.47,4.74,4.74,0,0,1-.31,1.73,4,4,0,0,1-.92,1.41,4.29,4.29,0,0,1-1.48.94,5.44,5.44,0,0,1-2,.34,6.08,6.08,0,0,1-2.49-.49,5.84,5.84,0,0,1-1.91-1.34l.55-.9a.73.73,0,0,1,.19-.18.45.45,0,0,1,.25-.07.56.56,0,0,1,.29.1L337,96l.47.34a3.89,3.89,0,0,0,.6.34,4.1,4.1,0,0,0,.77.26,4.2,4.2,0,0,0,1,.1,3.62,3.62,0,0,0,1.2-.19,2.56,2.56,0,0,0,.9-.52,2.27,2.27,0,0,0,.56-.81,2.7,2.7,0,0,0,.2-1,1.76,1.76,0,0,0-.29-1,2.4,2.4,0,0,0-.76-.68,5.27,5.27,0,0,0-1.08-.46L339.35,92a13.07,13.07,0,0,1-1.23-.47A4,4,0,0,1,337,90.8a3.16,3.16,0,0,1-.76-1.05,4,4,0,0,1,0-3,3.69,3.69,0,0,1,.84-1.23,4.12,4.12,0,0,1,1.36-.86,5,5,0,0,1,1.86-.32,5.9,5.9,0,0,1,2.14.37,5.06,5.06,0,0,1,1.7,1.08Z"/><path class="cls-3" d="M356,98.52h-1.9v-14H356Z"/><path class="cls-3" d="M372,84.48v14h-1a.81.81,0,0,1-.38-.08,1,1,0,0,1-.3-.26L362.23,87.6q0,.24,0,.48t0,.44v10h-1.67v-14h1.19l.16,0,.14.1.15.16,8.12,10.57c0-.17,0-.33,0-.49s0-.31,0-.46V84.48Z"/><path class="cls-3" d="M386,86.08h-4.54V98.52H379.6V86.08H375v-1.6h11Z"/><path class="cls-3" d="M397.75,97v1.55h-8.65v-14h8.65V86H391v4.66h5.47v1.49H391V97Z"/><path class="cls-3" d="M412.48,91.77v5.39a7.87,7.87,0,0,1-2.26,1.14,8.75,8.75,0,0,1-2.63.38,8.45,8.45,0,0,1-3.06-.52,6.72,6.72,0,0,1-2.33-1.47,6.4,6.4,0,0,1-1.48-2.27,7.89,7.89,0,0,1-.52-2.91,8.15,8.15,0,0,1,.5-2.93,6.48,6.48,0,0,1,1.43-2.27,6.38,6.38,0,0,1,2.26-1.46,8.14,8.14,0,0,1,3-.52,9.18,9.18,0,0,1,1.55.12,7.12,7.12,0,0,1,1.32.35,6.22,6.22,0,0,1,1.13.56,6.89,6.89,0,0,1,1,.74l-.54.86a.56.56,0,0,1-.33.25.57.57,0,0,1-.45-.09l-.54-.33a4.72,4.72,0,0,0-.74-.38,5.93,5.93,0,0,0-1-.31,6.76,6.76,0,0,0-1.41-.13,5.69,5.69,0,0,0-2.15.39,4.54,4.54,0,0,0-1.64,1.11,4.89,4.89,0,0,0-1,1.74,6.84,6.84,0,0,0-.36,2.3,6.93,6.93,0,0,0,.38,2.37,5,5,0,0,0,1.08,1.77,4.59,4.59,0,0,0,1.7,1.11,6.85,6.85,0,0,0,4,.16,7.54,7.54,0,0,0,1.48-.61V93.22h-2.18a.41.41,0,0,1-.3-.11.35.35,0,0,1-.11-.26V91.77Z"/><path class="cls-3" d="M426.74,98.52h-1.68a.83.83,0,0,1-.76-.4l-3.64-5a1.09,1.09,0,0,0-.36-.34,1.31,1.31,0,0,0-.59-.1h-1.44v5.86h-1.89v-14h4a8.66,8.66,0,0,1,2.3.27,4.4,4.4,0,0,1,1.6.78,3.12,3.12,0,0,1,.94,1.23,4.1,4.1,0,0,1,.3,1.61,4,4,0,0,1-.23,1.39,3.68,3.68,0,0,1-.68,1.16,4.07,4.07,0,0,1-1.09.88,5.38,5.38,0,0,1-1.45.55,1.88,1.88,0,0,1,.63.6Zm-6.48-7.24a4.8,4.8,0,0,0,1.45-.2,3,3,0,0,0,1.06-.57,2.36,2.36,0,0,0,.64-.88,2.86,2.86,0,0,0,.22-1.13,2.24,2.24,0,0,0-.82-1.89,4,4,0,0,0-2.47-.64h-2.08v5.3Z"/><path class="cls-3" d="M441,98.52h-1.47a.63.63,0,0,1-.41-.13.78.78,0,0,1-.24-.32l-1.31-3.39h-6.3L430,98.07a.69.69,0,0,1-.23.31.63.63,0,0,1-.41.14h-1.47l5.61-14h1.92Zm-4-5.21-2.2-5.71q-.1-.25-.21-.59t-.21-.72a10.71,10.71,0,0,1-.42,1.32l-2.2,5.7Z"/><path class="cls-3" d="M456,91.5a7.9,7.9,0,0,1-.5,2.87,6.36,6.36,0,0,1-1.41,2.21A6.28,6.28,0,0,1,451.93,98a7.63,7.63,0,0,1-2.83.5h-5.24v-14h5.24a7.63,7.63,0,0,1,2.83.5,6.25,6.25,0,0,1,2.19,1.43,6.41,6.41,0,0,1,1.41,2.22A7.9,7.9,0,0,1,456,91.5Zm-1.95,0a7.05,7.05,0,0,0-.35-2.31,4.88,4.88,0,0,0-1-1.72,4.27,4.27,0,0,0-1.57-1.08A5.44,5.44,0,0,0,449.1,86h-3.34V97h3.34a5.43,5.43,0,0,0,2.06-.37,4.29,4.29,0,0,0,1.57-1.07,4.83,4.83,0,0,0,1-1.72A7.05,7.05,0,0,0,454.08,91.5Z"/><path class="cls-3" d="M470.77,98.52H469.3a.63.63,0,0,1-.41-.13.78.78,0,0,1-.24-.32l-1.31-3.39H461l-1.31,3.39a.69.69,0,0,1-.23.31.63.63,0,0,1-.41.14h-1.47l5.61-14h1.92Zm-4-5.21-2.2-5.71q-.1-.25-.21-.59t-.21-.72a10.71,10.71,0,0,1-.42,1.32l-2.2,5.7Z"/><path class="cls-3" d="M480.78,86.68a.72.72,0,0,1-.19.22.42.42,0,0,1-.25.07.7.7,0,0,1-.39-.17q-.22-.17-.56-.37a4.53,4.53,0,0,0-.81-.37,3.49,3.49,0,0,0-1.15-.17,3.36,3.36,0,0,0-1.12.17,2.4,2.4,0,0,0-.81.46,1.92,1.92,0,0,0-.49.69,2.19,2.19,0,0,0-.17.86,1.58,1.58,0,0,0,.29,1,2.49,2.49,0,0,0,.76.66,5.86,5.86,0,0,0,1.08.48l1.23.42q.63.22,1.23.48a4.34,4.34,0,0,1,1.08.68,3.11,3.11,0,0,1,.76,1,3.35,3.35,0,0,1,.29,1.47,4.74,4.74,0,0,1-.31,1.73,4,4,0,0,1-.92,1.41,4.29,4.29,0,0,1-1.48.94,5.44,5.44,0,0,1-2,.34,6.08,6.08,0,0,1-2.49-.49,5.84,5.84,0,0,1-1.91-1.34l.55-.9a.73.73,0,0,1,.19-.18.45.45,0,0,1,.25-.07.56.56,0,0,1,.29.1l.37.26.47.34a3.89,3.89,0,0,0,.6.34,4.1,4.1,0,0,0,.77.26,4.2,4.2,0,0,0,1,.1,3.62,3.62,0,0,0,1.2-.19,2.56,2.56,0,0,0,.9-.52,2.27,2.27,0,0,0,.56-.81,2.7,2.7,0,0,0,.2-1,1.76,1.76,0,0,0-.29-1,2.4,2.4,0,0,0-.76-.68,5.27,5.27,0,0,0-1.08-.46L476.41,92a13.07,13.07,0,0,1-1.23-.47,4,4,0,0,1-1.08-.69,3.16,3.16,0,0,1-.76-1.05,4,4,0,0,1,0-3,3.69,3.69,0,0,1,.84-1.23,4.12,4.12,0,0,1,1.36-.86,5,5,0,0,1,1.86-.32,5.9,5.9,0,0,1,2.14.37,5.06,5.06,0,0,1,1.7,1.08Z"/></g></g></svg>